<?xml version="1.0" standalone="no"?>
<!DOCTYPE svg PUBLIC "-//W3C//DTD SVG 20010904//EN"
 "http://www.w3.org/TR/2001/REC-SVG-20010904/DTD/svg10.dtd">
<svg version="1.0" xmlns="http://www.w3.org/2000/svg"
 width="300.000000pt" height="300.000000pt" viewBox="0 0 300.000000 300.000000"
 preserveAspectRatio="xMidYMid meet">
<metadata>
Created by potrace 1.10, written by Peter Selinger 2001-2011
</metadata>
<g transform="translate(0.000000,300.000000) scale(0.100000,-0.100000)"
fill="#000000" stroke="none">
<path d="M1325 2040 c-4 -7 -46 -11 -118 -10 -154 2 -167 1 -167 -10 0 -6 19
-8 50 -4 35 4 50 3 50 -6 0 -6 -8 -10 -17 -9 -10 1 -37 1 -60 0 -70 -2 -49
-16 30 -19 39 -2 77 -8 82 -14 7 -6 -3 -9 -30 -6 -35 3 -40 0 -43 -20 -3 -21
-32 -32 -32 -12 0 11 -30 14 -30 3 0 -5 -4 -14 -9 -21 -7 -12 -14 -11 -40 3
-18 9 -39 15 -46 13 -8 -2 61 -45 153 -95 92 -51 185 -104 207 -117 l40 -24
-2 175 c0 96 -3 177 -6 179 -3 3 -8 0 -12 -6z m-21 -160 c2 -49 0 -94 -4 -100
-8 -13 -147 57 -188 93 l-22 21 46 29 c25 15 48 37 51 47 6 24 93 33 106 12 5
-7 10 -53 11 -102z"/>
<path d="M1443 2043 l-33 -4 0 -200 0 -199 -40 0 -40 0 0 -121 c0 -112 -1
-121 -17 -113 -20 8 -50 10 -73 3 -10 -3 -16 5 -18 24 -3 23 0 27 20 27 43 0
61 22 66 82 6 74 -16 98 -88 98 -47 0 -50 -2 -50 -25 0 -25 -1 -26 -62 -23
-57 3 -63 5 -66 26 -3 20 -8 23 -40 20 -30 -2 -38 -8 -40 -25 -5 -33 -57 -32
-84 2 -16 21 -28 25 -74 25 l-54 0 0 -140 0 -140 30 0 c25 0 30 4 29 23 -2 27
-16 86 -18 72 -1 -10 -21 14 -21 27 0 4 7 14 16 23 9 8 16 31 17 51 1 26 5 34
16 32 23 -4 28 -78 7 -78 -9 0 -16 -5 -16 -11 0 -6 9 -9 20 -6 15 4 20 0 20
-14 0 -22 -11 -24 -28 -7 -14 14 -16 4 -3 -20 6 -9 13 -33 16 -53 5 -31 10
-37 35 -41 35 -5 37 3 16 72 -11 37 -11 50 0 75 7 17 13 40 14 52 0 17 6 22
30 21 25 -1 29 -4 25 -22 -2 -12 -10 -50 -16 -86 -6 -36 -13 -75 -15 -86 -3
-17 2 -23 22 -27 20 -3 27 1 35 20 5 13 9 29 9 34 0 5 6 9 14 9 9 0 16 -12 18
-32 3 -26 7 -32 31 -33 33 -1 33 5 11 129 -8 48 -13 90 -11 93 3 2 17 -2 31
-9 21 -9 32 -9 47 0 36 23 39 15 39 -98 0 -103 1 -110 20 -110 33 0 35 1 32
16 -2 11 10 14 53 14 48 0 55 -3 55 -19 0 -15 6 -19 28 -17 26 3 27 5 24 51
-1 26 -9 57 -17 69 -8 11 -14 30 -14 41 1 17 2 17 6 2 8 -30 23 -8 23 34 0 32
3 39 20 39 17 0 20 -7 20 -40 0 -33 -3 -40 -20 -40 -11 0 -20 -5 -20 -11 0 -7
10 -9 25 -7 20 4 25 1 25 -14 0 -16 -3 -17 -21 -8 -11 7 -23 9 -26 6 -3 -3 2
-8 11 -12 14 -5 16 -32 16 -235 l0 -229 53 0 c28 0 69 -3 90 -6 l37 -7 0 183
c0 176 1 182 23 201 31 26 87 26 87 0 0 -15 6 -19 28 -18 16 2 27 8 27 17 0
10 12 16 33 18 25 3 32 0 32 -15 0 -16 9 -18 65 -18 64 0 65 0 65 28 0 25 -3
27 -40 27 -38 0 -40 2 -40 30 0 27 3 30 30 30 25 0 30 4 30 25 0 21 -5 25 -30
25 -28 0 -30 3 -30 35 0 34 1 35 40 35 36 0 40 3 40 25 0 24 -2 25 -65 25
l-65 0 0 -119 0 -120 -27 2 c-36 3 -41 16 -42 110 -1 76 -1 77 24 77 20 0 25
5 25 25 0 24 -2 25 -74 25 -73 0 -73 0 -68 -25 3 -16 11 -25 23 -25 17 0 19
-9 19 -94 l0 -93 -30 1 -30 1 0 98 c0 91 -2 100 -25 123 -25 25 -25 27 -25
199 l0 174 -32 11 -33 10 33 -5 c24 -3 32 -1 32 10 0 10 -10 15 -29 15 -16 0
-41 2 -57 4 -16 2 -44 2 -61 -1z m100 -65 c14 -17 17 -41 17 -155 0 -74 4
-143 10 -153 8 -15 6 -20 -13 -26 -51 -15 -57 -30 -57 -145 0 -104 1 -108 26
-128 15 -12 33 -21 41 -21 10 0 11 -4 3 -19 -5 -11 -10 -78 -10 -150 0 -90 -4
-132 -12 -137 -14 -9 -90 -6 -100 4 -4 4 -8 75 -9 157 -2 148 -1 150 20 148
25 -3 26 6 6 70 -10 34 -12 55 -5 67 6 10 10 41 10 69 0 42 -4 53 -27 71 -20
16 -24 23 -15 32 8 8 12 62 12 170 0 139 2 158 18 167 23 15 63 5 85 -21z
m-527 -406 c12 -18 30 -123 23 -132 -7 -9 -64 -4 -68 6 -4 11 7 107 15 128 8
21 17 20 30 -2z m239 -22 c0 -25 -5 -36 -17 -38 -15 -3 -18 4 -18 38 0 34 3
41 18 38 12 -2 17 -13 17 -38z m333 -53 c3 -82 2 -87 -18 -87 -19 0 -20 6 -20
91 0 81 2 90 18 87 14 -3 17 -17 20 -91z"/>
<path d="M1655 2021 c-4 -7 13 -11 52 -12 32 -1 82 -2 111 -3 29 -2 55 1 58 6
3 4 -37 8 -90 8 -52 0 -101 3 -109 6 -8 3 -18 1 -22 -5z"/>
<path d="M1655 1846 l0 -155 31 19 c16 11 70 42 120 69 l89 51 -87 0 c-52 0
-88 4 -88 10 0 6 7 10 16 10 10 0 14 6 11 14 -5 12 0 12 26 5 68 -19 157 -10
242 26 29 12 27 13 -45 21 -41 4 -67 10 -57 12 9 2 15 8 12 13 -4 5 -1 9 4 9
6 0 11 4 11 10 0 5 -26 9 -57 8 -77 0 -182 12 -189 23 -3 5 -13 9 -22 9 -15 0
-17 -16 -17 -154z m220 74 c41 -16 23 -24 -50 -22 -54 2 -68 -2 -91 -21 -31
-27 -28 -52 7 -65 21 -8 21 -9 -5 -26 -15 -9 -30 -15 -35 -12 -6 4 -8 146 -2
165 2 7 148 -8 176 -19z"/>
<path d="M860 1847 c0 -17 38 -39 52 -31 6 4 8 3 5 -2 -3 -6 -2 -16 3 -24 7
-11 11 -11 24 -1 23 19 21 24 -26 49 -49 25 -58 27 -58 9z"/>
<path d="M1828 1741 c-65 -37 -120 -70 -123 -73 -3 -3 27 -3 67 0 66 4 84 11
185 66 62 34 112 64 113 69 0 4 -28 7 -62 6 -58 -1 -71 -6 -180 -68z"/>
<path d="M960 1779 c-9 -16 -18 -19 -38 -14 -15 3 17 -19 71 -50 96 -54 101
-56 165 -53 l67 3 -123 68 c-68 37 -125 67 -127 67 -3 0 -9 -9 -15 -21z"/>
<path d="M795 1760 c-3 -5 2 -16 11 -25 15 -15 15 -17 -1 -35 -10 -11 -31 -20
-46 -20 -15 0 -30 -4 -33 -8 -3 -5 53 -9 124 -9 72 0 128 2 126 5 -18 18 -177
99 -181 92z"/>
<path d="M2100 1712 c-88 -48 -90 -64 -5 -43 24 6 56 11 71 11 22 0 25 2 14
15 -10 13 -9 15 11 15 25 0 65 20 41 20 -7 0 -10 5 -7 10 3 6 2 10 -4 10 -5 0
-15 2 -23 5 -7 2 -51 -17 -98 -43z"/>
<path d="M270 1615 c0 -18 5 -25 20 -25 19 0 20 -7 20 -119 l0 -120 30 1 30 1
0 119 c0 111 1 118 20 118 15 0 20 7 20 25 0 24 -2 25 -70 25 -68 0 -70 -1
-70 -25z"/>
<path d="M430 1498 l0 -143 65 0 65 0 0 33 c0 20 4 31 10 27 6 -3 10 -18 10
-34 0 -23 4 -27 27 -26 27 0 28 2 26 53 -2 29 2 52 7 52 6 0 10 -7 10 -16 0
-9 5 -34 12 -55 10 -35 14 -38 37 -32 14 3 27 6 28 7 1 1 -5 28 -13 60 -11 42
-12 62 -5 69 6 6 11 34 11 62 0 67 -18 85 -88 85 l-52 0 0 -75 c0 -69 -2 -75
-20 -75 -14 0 -20 6 -18 18 2 13 -3 16 -24 14 -26 -3 -28 0 -28 33 0 33 2 35
35 35 31 0 35 3 35 25 0 24 -2 25 -65 25 l-65 0 0 -142z m235 52 c0 -25 -5
-36 -17 -38 -15 -3 -18 4 -18 38 0 34 3 41 18 38 12 -2 17 -13 17 -38z m-85
-93 c0 -17 -9 -26 -33 -35 -49 -18 -57 -15 -57 17 0 26 4 30 33 34 17 2 38 5
45 5 6 1 12 -8 12 -21z"/>
<path d="M1994 1632 c-25 -16 -34 -56 -34 -146 0 -90 1 -95 26 -115 34 -26 64
-27 97 -1 31 25 74 26 79 3 2 -10 13 -17 31 -17 24 -2 27 2 27 32 0 21 5 32
13 31 24 -5 97 13 91 22 -3 5 -16 6 -30 3 -19 -5 -24 -2 -24 14 0 14 9 21 30
26 18 3 30 12 30 21 0 18 2 18 -50 0 -52 -18 -60 -19 -60 -2 0 9 22 19 55 26
30 7 55 16 55 21 0 5 -15 4 -32 -2 -59 -18 -73 -16 -76 16 -3 20 0 27 10 24 7
-3 12 -13 12 -22 -1 -9 4 -16 12 -16 16 0 31 23 18 27 -6 2 -8 17 -6 33 l4 30
-76 0 c-74 0 -76 -1 -76 -25 0 -20 5 -25 26 -25 22 0 25 -3 20 -22 -3 -13 -6
-55 -6 -94 0 -70 -1 -72 -25 -70 -21 1 -25 6 -25 34 0 29 -3 32 -30 32 -27 0
-30 -3 -30 -30 0 -20 -5 -30 -15 -30 -12 0 -15 17 -15 90 0 71 3 90 14 90 9 0
16 -12 18 -27 2 -20 9 -29 26 -31 38 -6 43 56 6 92 -16 16 -71 21 -90 8z m260
-161 c9 -14 -4 -41 -20 -41 -8 0 -14 10 -14 25 0 25 23 35 34 16z"/>
<path d="M2347 1518 c2 -119 3 -124 28 -145 14 -13 33 -23 41 -23 19 0 57 19
66 34 4 6 8 66 8 134 l0 122 -31 0 -30 0 2 -62 c2 -54 0 -63 -15 -66 -16 -3
-17 3 -14 62 l3 66 -30 0 -30 0 2 -122z m90 -60 c-2 -32 -6 -44 -19 -46 -20
-4 -26 32 -7 44 8 4 7 9 -2 15 -12 8 -11 11 1 19 25 16 29 12 27 -32z"/>
<path d="M2515 1498 l1 -143 26 -2 c26 -2 27 1 30 50 l3 52 18 -51 c17 -49 20
-51 50 -49 18 2 33 3 34 4 1 1 -13 37 -32 82 l-35 80 30 60 30 59 -34 0 c-29
0 -36 -5 -47 -32 l-13 -33 -3 33 c-4 27 -8 32 -31 32 l-27 0 0 -142z m61 15
c3 -30 0 -43 -11 -47 -12 -4 -15 5 -15 45 0 62 21 63 26 2z"/>
<path d="M1100 1382 c0 -23 4 -28 23 -28 13 1 24 9 28 21 8 27 2 35 -27 35
-20 0 -24 -5 -24 -28z"/>
<path d="M2280 1382 c0 -23 4 -27 25 -27 32 2 38 9 30 34 -4 14 -15 21 -31 21
-20 0 -24 -5 -24 -28z"/>
<path d="M705 1310 c4 -6 -18 -10 -57 -11 -35 0 -85 -7 -113 -15 -50 -13 -49
-13 48 -9 65 3 97 1 97 -6 0 -6 6 -9 13 -6 8 3 20 1 28 -4 11 -7 11 -9 -3 -9
-20 0 -24 -16 -6 -22 19 -7 1 -24 -47 -47 -52 -24 -59 -42 -15 -39 17 1 30 6
30 10 0 4 5 8 11 8 9 0 275 144 288 156 2 2 -60 4 -138 4 -92 0 -140 -4 -136
-10z m105 -40 c0 -13 -48 -36 -56 -27 -4 3 -4 13 -1 22 7 17 57 21 57 5z"/>
<path d="M973 1197 c-143 -78 -222 -127 -220 -136 2 -18 23 -11 21 7 -1 6 4
12 10 12 20 0 27 -12 15 -26 -6 -7 -9 -19 -6 -26 3 -8 10 -2 17 15 8 16 19 26
26 23 8 -3 16 -1 20 5 3 6 13 8 21 5 8 -3 24 1 36 8 12 8 112 64 221 125 l200
111 -70 0 -69 0 -222 -123z"/>
<path d="M1915 1253 c98 -54 127 -66 159 -64 75 4 69 14 -38 74 -98 54 -107
57 -172 57 l-69 0 120 -67z"/>
<path d="M2114 1264 c94 -53 102 -55 145 -48 48 8 59 10 64 13 1 1 22 4 47 7
24 2 51 12 60 20 14 15 11 16 -35 9 -58 -8 -51 6 13 24 84 24 44 31 -175 31
l-218 0 99 -56z m196 7 c0 -11 -82 -24 -103 -15 -35 13 -15 24 43 24 33 0 60
-4 60 -9z"/>
<path d="M1125 1165 c-121 -69 -223 -125 -227 -125 -5 0 -8 -5 -8 -11 0 -5 10
-3 22 5 30 21 61 22 34 1 -19 -15 -19 -15 5 -16 65 -4 80 -10 45 -18 -17 -3
-29 -10 -27 -16 2 -12 55 -7 59 6 5 12 32 12 32 0 0 -20 75 -39 120 -30 25 4
48 8 53 9 4 0 7 4 7 9 0 5 -24 11 -52 14 -62 5 -180 46 -175 60 1 5 27 23 56
39 30 15 75 41 100 56 71 43 120 67 125 62 8 -9 9 -136 1 -149 -5 -9 -20 -11
-45 -7 -27 4 -52 0 -84 -14 -25 -10 -46 -21 -46 -23 0 -2 51 -3 113 -3 l112 1
0 137 c0 76 0 138 0 138 0 -1 -99 -57 -220 -125z"/>
<path d="M1654 1165 l1 -125 190 1 c105 0 198 4 208 8 14 5 -26 31 -158 105
-97 53 -191 106 -209 117 l-32 19 0 -125z m99 27 c100 -55 197 -115 197 -121
0 -10 -155 -21 -206 -15 -47 6 -52 13 -53 82 -1 79 6 85 62 54z"/>
<path d="M2270 1179 c0 -10 49 -29 73 -29 12 1 33 7 47 16 24 14 24 14 -15 8
-29 -4 -36 -3 -25 5 10 7 2 9 -33 8 -26 -1 -47 -4 -47 -8z"/>
<path d="M2086 1171 c-13 -2 9 -19 69 -52 87 -49 118 -56 175 -40 22 6 16 12
-61 54 -85 46 -112 52 -183 38z"/>
<path d="M2371 1140 l-34 -5 36 -17 c20 -10 39 -14 41 -9 3 5 24 11 46 15 24
4 38 11 35 17 -6 9 -55 9 -124 -1z"/>
<path d="M2310 1051 c-25 -4 -30 -8 -19 -13 21 -8 98 2 105 13 6 10 -32 10
-86 0z"/>
<path d="M2050 1031 c-19 -4 -117 -7 -217 -6 -162 0 -183 -2 -183 -16 0 -30
189 -34 445 -10 l70 7 -32 17 c-18 9 -36 16 -40 16 -4 -1 -24 -4 -43 -8z"/>
</g>
</svg>
